<svg id="Grupo_24" data-name="Grupo 24" xmlns="http://www.w3.org/2000/svg" xmlns:xlink="http://www.w3.org/1999/xlink" width="135.989" height="108.9" viewBox="0 0 135.989 108.9">
  <defs>
    <clipPath id="clip-path">
      <rect id="Rectángulo_21" data-name="Rectángulo 21" width="135.989" height="108.9" fill="none"/>
    </clipPath>
  </defs>
  <g id="Grupo_22" data-name="Grupo 22" clip-path="url(#clip-path)">
    <path id="Trazado_17" data-name="Trazado 17" d="M135.956,41.138C135.929,56,137.225,54.4,122.807,54.466c-15.223.072-13.924-1.657-13.941,13.769-.016,14.9,1.031,13.49-13.706,13.527-15.143.039-13.461-1.385-13.5,13.545s1.269,13.577-13.59,13.553c-15.332-.025-13.639,1.46-13.735-13.952-.089-14.372,1.686-13.092-13.312-13.149s-13.8,1.592-13.82-13.949c-.017-14.5,1.206-13.337-13.25-13.349C-1.471,54.448.056,55.982.036,40.716c-.02-14.824-1.306-13.5,13.6-13.572,14.647-.072,13.55,1.821,13.561-13.536C27.211-1.848,26.352.113,40.8.054,55.916-.007,54.326-1.176,54.338,13.6c.012,15.411-.84,13.5,13.6,13.54,15.08.037,13.632,1.389,13.7-13.4C81.71-1.288,79.8.056,95.594.04c14.069-.013,13.272-1.4,13.274,13.369,0,15.633-1.254,13.687,13.913,13.725,15.132.038,13.045-.682,13.174,14M54.345,67.7c.008,15.162-1.322,14.058,13.709,14.075,15.244.016,13.548.712,13.569-13.591.022-15.519,1.147-13.639-13.932-13.707C53.4,54.409,54.306,53.257,54.345,67.7M94.992,54.455c15.156-.1,13.759,1.724,13.835-13.8,0-.191,0-.382,0-.572.14-14.137.549-12.938-13.121-12.9-15.613.043-14.025-1.547-14.05,14.17-.023,14.45-1.3,13.076,13.333,13.1M54.332,40.569c-.054-14.424,1.6-13.411-13.671-13.39-14.356.02-13.482-1.392-13.449,13.7.033,15.429-1.063,13.52,13.427,13.554C56,54.47,54.251,55.875,54.332,40.569" transform="translate(0 0)" fill="#121415"/>
  </g>
</svg>
