<svg id="Grupo_18" data-name="Grupo 18" xmlns="http://www.w3.org/2000/svg" xmlns:xlink="http://www.w3.org/1999/xlink" width="135.959" height="108.508" viewBox="0 0 135.959 108.508">
  <defs>
    <clipPath id="clip-path">
      <rect id="Rectángulo_20" data-name="Rectángulo 20" width="135.959" height="108.508" fill="none"/>
    </clipPath>
  </defs>
  <g id="Grupo_17" data-name="Grupo 17" clip-path="url(#clip-path)">
    <path id="Trazado_16" data-name="Trazado 16" d="M135.933,13.805c-.1-14.979,1.8-13.818-13.839-13.759C108.059.1,108.671-1.73,108.722,13.178c.015,4.225-.07,7.186.09,9.26a4.344,4.344,0,0,1-1.274,3.4l-.066.067a4.408,4.408,0,0,1-3.438,1.27c-2.039-.144-4.927-.056-9.024-.04-14.035.053-13.423-1.776-13.373,13.132.015,4.225-.069,7.186.09,9.26a4.344,4.344,0,0,1-1.274,3.4l-.066.067a4.408,4.408,0,0,1-3.438,1.27c-2.039-.144-4.927-.056-9.024-.04C53.89,54.268,54.5,52.44,54.552,67.347c.015,4.225-.069,7.186.09,9.26A4.344,4.344,0,0,1,53.368,80l-.066.067a4.408,4.408,0,0,1-3.438,1.27c-2.039-.144-4.927-.056-9.024-.04-3.885.015-6.645-.113-8.607.008a4.421,4.421,0,0,1-3.413-1.273l-.379-.378a4.432,4.432,0,0,1-1.266-3.436c.122-1.867.049-4.453.053-8.04,0-.191,0-.381,0-.572-.1-14.979,1.8-13.818-13.839-13.759C-.646,53.9-.034,52.074.017,66.981.07,82.861-1.288,80.925,14.186,81.032c3.675-.016,6.318.057,8.219-.067a4.439,4.439,0,0,1,3.44,1.272l.444.444a4.44,4.44,0,0,1,1.267,3.495c-.148,1.92-.1,4.579-.089,8.257.053,15.88-1.305,13.944,14.169,14.051,14.231-.062,13.024,1.235,13.042-12.851,0-.191,0-.381,0-.572-.028-4.137.1-7.042-.04-9.079a4.386,4.386,0,0,1,4.634-4.628c2.094.146,5.109.016,9.448.046,14.231-.062,13.024,1.235,13.042-12.851,0-.191,0-.381,0-.572-.028-4.137.1-7.042-.04-9.079a4.386,4.386,0,0,1,4.634-4.628c2.094.146,5.11.016,9.448.046,14.231-.061,13.024,1.235,13.042-12.851,0-.191,0-.381,0-.572-.028-4.137.1-7.042-.04-9.079a4.386,4.386,0,0,1,4.634-4.628c2.094.146,5.109.016,9.448.046,14.231-.061,13.024,1.235,13.042-12.851,0-.191,0-.381,0-.572" transform="translate(0 0)" fill="#121415"/>
  </g>
</svg>
