<?xml version="1.0" encoding="UTF-8"?>
<svg id="Capa_1" data-name="Capa 1" xmlns="http://www.w3.org/2000/svg" viewBox="0 0 671 671">
  <defs>
    <style>
      .cls-1 {
        fill: #121415;
      }
    </style>
  </defs>
  <path id="Trazado_35" data-name="Trazado 35" class="cls-1" d="m608.42,15.47H63.1c-16.51,0-29.89,13.39-29.89,29.9v436.27c-.01,16.51,13.37,29.91,29.88,29.92h545.32c16.51,0,29.9-13.38,29.91-29.9h0V45.37c0-16.52-13.39-29.9-29.91-29.9m-18.1,419.95c0,16.51-13.39,29.9-29.9,29.9H111.11c-16.52,0-29.91-13.38-29.92-29.9h0V91.6c0-16.52,13.39-29.91,29.91-29.91h449.32c16.52,0,29.9,13.39,29.9,29.91v343.83Z"/>
  <path id="Trazado_36" data-name="Trazado 36" class="cls-1" d="m637.8,587.3v38.32c0,16.51-13.39,29.9-29.9,29.9H62.58c-16.51,0-29.9-13.39-29.9-29.9h0v-38.32c0-16.51,13.39-29.9,29.9-29.9h545.32c16.51,0,29.9,13.39,29.9,29.9h0"/>
</svg>