<svg id="Grupo_10" data-name="Grupo 10" xmlns="http://www.w3.org/2000/svg" xmlns:xlink="http://www.w3.org/1999/xlink" width="35.563" height="35.563" viewBox="0 0 35.563 35.563">
  <defs>
    <clipPath id="clip-path">
      <rect id="Rectángulo_16" data-name="Rectángulo 16" width="35.563" height="35.563" fill="#121415"/>
    </clipPath>
  </defs>
  <g id="Grupo_8" data-name="Grupo 8" clip-path="url(#clip-path)">
    <path id="Trazado_11" data-name="Trazado 11" d="M35.549,22.137c0-1.258.036-2.155,0-2.8v-18a1.325,1.325,0,0,0-.027-.265,1.311,1.311,0,0,0-.274-.572A1.313,1.313,0,0,0,34.231.029H16.125C15.5-.012,14.654,0,13.5.005c-1.341,0-2.292-.021-2.97.024h-.288a1.308,1.308,0,0,0-.7.2.945.945,0,0,0-.51.588,1.312,1.312,0,0,0-.111.528v.031c-.071.69-.02,1.722-.031,3.272.006,1.289-.022,2.19.031,2.821v.12a1.308,1.308,0,0,0,.127.561.928.928,0,0,0,.586.608,1.308,1.308,0,0,0,.6.147h.229c.612.04,1.459.016,2.635.017h.188c1.344-.009,2.291.031,2.958-.012a1.443,1.443,0,0,1,1.115.417,1.42,1.42,0,0,1,.419,1.1c-.012.164-.018.345-.021.545-.018.574-.008,1.3,0,2.228,0,1.373-.022,2.338.028,3.017a1.442,1.442,0,0,1-.416,1.13l-.022.022a1.444,1.444,0,0,1-1.127.417c-.668-.047-1.615-.018-2.957-.013-4.6.018-4.4-.582-4.382,4.3,0,1.373-.022,2.338.028,3.018a1.442,1.442,0,0,1-.416,1.13l-.022.022a1.444,1.444,0,0,1-1.127.417c-.668-.047-1.615-.018-2.957-.013-4.6.018-4.4-.582-4.382,4.3.018,5.2-.427,4.569,4.643,4.6,4.663-.02,4.267.4,4.274-4.211,0-.063,0-.125,0-.188-.009-1.344.031-2.291-.012-2.958a1.443,1.443,0,0,1,.417-1.115,1.421,1.421,0,0,1,1.1-.419c.686.048,1.674.005,3.1.015,4.663-.02,4.267.4,4.274-4.211,0-.063,0-.125,0-.188-.009-1.344.031-2.291-.012-2.957a1.442,1.442,0,0,1,.417-1.115h0a1.421,1.421,0,0,1,1.1-.419c.686.048,1.674.005,3.1.015.891,0,1.6.008,2.156,0,.209,0,.4-.008.568-.018a1.442,1.442,0,0,1,1.115.417,1.42,1.42,0,0,1,.419,1.1c-.048.686-.005,1.674-.015,3.1.006,1.289-.022,2.19.031,2.821v.12a1.309,1.309,0,0,0,.127.561.928.928,0,0,0,.586.608,1.31,1.31,0,0,0,.6.147h.229c.612.04,1.459.016,2.635.017h.188c1.4-.009,2.364.034,3.035-.017h.157a1.309,1.309,0,0,0,.639-.166.9.9,0,0,0,.444-.4,1.311,1.311,0,0,0,.233-.747v-.446c.03-.654.006-1.542,0-2.756M19.251,8.9l-.068.006c-.023,0-.046,0-.069-.006Zm7.41,7.314c0-.069.008-.142.012-.217v.533a1.464,1.464,0,0,1-.012-.316" transform="translate(0 0)" fill="#121415"/>
  </g>
</svg>
