<svg id="Grupo_2" data-name="Grupo 2" xmlns="http://www.w3.org/2000/svg" xmlns:xlink="http://www.w3.org/1999/xlink" width="196.392" height="40.435" viewBox="0 0 196.392 40.435">
  <defs>
    <clipPath id="clip-path">
      <rect id="Rectángulo_8" data-name="Rectángulo 8" width="196.392" height="40.435" fill="#121415"/>
    </clipPath>
  </defs>
  <g id="Grupo_1" data-name="Grupo 1" clip-path="url(#clip-path)">
    <path id="Trazado_1" data-name="Trazado 1" d="M228.648,64.517l-3.527,1.176c-.428-3.794-2.405-5.826-5.345-5.826-4.329,0-7.056,3.581-7.056,9.46V84.186h-4.062V57.195h3.474l.374,4.222h.054a8.6,8.6,0,0,1,7.8-5.345c4.6,0,7.75,3.046,8.284,8.445" transform="translate(-166.937 -44.861)" fill="#121415"/>
    <path id="Trazado_2" data-name="Trazado 2" d="M309.961,70.933c0-8.819,5.719-14.592,14.378-14.592,8.712,0,14.431,5.772,14.431,14.592,0,8.765-5.719,14.538-14.431,14.538-8.659,0-14.378-5.772-14.378-14.538m24.693,0c0-6.574-4.062-10.85-10.316-10.85s-10.316,4.276-10.316,10.85,4.062,10.85,10.316,10.85,10.316-4.276,10.316-10.85" transform="translate(-247.985 -45.076)" fill="#121415"/>
    <path id="Trazado_3" data-name="Trazado 3" d="M466.064,84.4V57.409h3.527l.428,3.955h.054c1.6-3.154,5.131-5.024,9.46-5.024,4.276,0,7.162,1.978,8.552,5.452h.053a11.56,11.56,0,0,1,10.156-5.452c5.879,0,9.354,3.741,9.354,10.1V84.4h-4.116V66.709c0-4.169-2.4-6.628-6.467-6.628-5.131,0-8.177,3.848-8.177,9.3V84.4h-4.062V66.709c0-4.169-2.405-6.628-6.521-6.628-5.131,0-8.178,3.848-8.178,9.3V84.4Z" transform="translate(-372.876 -45.075)" fill="#121415"/>
    <path id="Trazado_4" data-name="Trazado 4" d="M694.065,34.838h-.054l-.428,4.65h-3.527V.2h4.062V17.039h.053a12.2,12.2,0,0,1,10.476-5.612c7.857,0,13.683,6.146,13.683,14.592,0,8.391-5.826,14.538-13.736,14.538a12.134,12.134,0,0,1-10.529-5.719m20.15-8.819c0-6.147-4.222-10.85-10.1-10.85-5.826,0-10.1,4.7-10.1,10.85,0,6.093,4.276,10.85,10.1,10.85s10.1-4.65,10.1-10.85" transform="translate(-552.081 -0.162)" fill="#121415"/>
    <path id="Trazado_5" data-name="Trazado 5" d="M838.136,70.933c0-8.819,5.719-14.592,14.378-14.592,8.712,0,14.431,5.772,14.431,14.592,0,8.765-5.719,14.538-14.431,14.538-8.659,0-14.378-5.772-14.378-14.538m24.693,0c0-6.574-4.062-10.85-10.315-10.85S842.2,64.358,842.2,70.933s4.062,10.85,10.316,10.85,10.315-4.276,10.315-10.85" transform="translate(-670.553 -45.076)" fill="#121415"/>
    <path id="Trazado_6" data-name="Trazado 6" d="M27.724,17.007V10.083A1.328,1.328,0,0,0,26.4,8.755H13.7a1.328,1.328,0,0,1-1.328-1.328v-6.1A1.328,1.328,0,0,0,11.043,0H1.328A1.328,1.328,0,0,0,0,1.328V8.252A1.328,1.328,0,0,0,1.328,9.58h8.954a1.328,1.328,0,0,1,1.328,1.328v5.275a1.328,1.328,0,0,1-1.328,1.328H1.328A1.328,1.328,0,0,0,0,18.838v6.924A1.328,1.328,0,0,0,1.328,27.09h8.954a1.328,1.328,0,0,1,1.328,1.328V39.107a1.328,1.328,0,0,0,1.328,1.328h6.924a1.328,1.328,0,0,0,1.328-1.328V27.593a1.328,1.328,0,0,0-1.328-1.328H13.7a1.328,1.328,0,0,1-1.328-1.328V19.663A1.328,1.328,0,0,1,13.7,18.335H26.4a1.328,1.328,0,0,0,1.328-1.328" fill="#121415"/>
  </g>
</svg>
