<?xml version="1.0" encoding="UTF-8"?>
<svg id="Capa_1" data-name="Capa 1" xmlns="http://www.w3.org/2000/svg" xmlns:xlink="http://www.w3.org/1999/xlink" viewBox="0 0 671 671">
  <defs>
    <style>
      .cls-1, .cls-2 {
        fill: none;
      }

      .cls-3 {
        fill: #121415;
      }

      .cls-2 {
        clip-path: url(#clippath);
      }
    </style>
    <clipPath id="clippath">
      <rect class="cls-1" x="7.5" y="129.26" width="656" height="412.49"/>
    </clipPath>
  </defs>
  <g class="cls-2">
    <g id="Grupo_78" data-name="Grupo 78">
      <path id="Trazado_37" data-name="Trazado 37" class="cls-3" d="m648.68,130.06h-70.36c-8.19,0-14.83,6.64-14.83,14.83v179.05c0,2.65-2.15,4.8-4.8,4.8-1.27,0-2.5-.51-3.4-1.41l-90.92-90.92-.24.24-55.85-55.87c-4.6-5.3-11.49-11.94-20.76-21.15-10.78-10.67-18.13-18.44-23.88-23.47l-2.29-2.31c-1.84-1.82-4.13-3.11-6.64-3.75-3.01-1.27-6.43-1.1-9.29.47-1.89.73-3.61,1.85-5.05,3.29l-.25.26c-6.06,4.93-13.88,13.56-26.32,25.83-10.22,10.31-17.62,17.27-22.23,22.73l-.95.95c-1.5,1.51-2.65,3.33-3.38,5.33-1.7,3.1-1.73,6.84-.1,9.97.71,2.13,1.9,4.07,3.48,5.67l1.83,1.83c4.56,5.19,11.5,11.75,20.86,21.13l1.49,1.5c10.79,10.64,18.02,18.51,23.65,23.48,1.8,1.54,3.23,3.46,4.2,5.62,2.83,6.45,1.19,14-4.07,18.69-5.85,5.09-13.38,13.3-24.79,24.55-10.61,10.7-18.18,17.79-22.73,23.34-2.04,2.53-5.11,4.01-8.36,4.03-2.84,0-5.57-1.13-7.58-3.14l-89.18-89.2-.24.24-55.85-55.85c-4.6-5.3-11.49-11.94-20.76-21.15-10.75-10.69-18.13-18.46-23.88-23.49l-2.29-2.31c-1.84-1.81-4.13-3.11-6.63-3.75-3.01-1.27-6.43-1.1-9.29.47-1.89.73-3.61,1.85-5.05,3.29l-.25.26c-6.06,4.93-13.89,13.53-26.32,25.83-10.22,10.31-17.63,17.27-22.23,22.73l-.95.95c-1.5,1.51-2.66,3.33-3.4,5.33-1.68,3.09-1.72,6.82-.09,9.94.71,2.13,1.9,4.07,3.48,5.67l1.86,1.85c4.56,5.19,11.5,11.75,20.86,21.13l1.49,1.5c10.79,10.64,18.02,18.51,23.65,23.48,1.8,1.54,3.23,3.46,4.2,5.62,2.83,6.45,1.19,14-4.07,18.69-5.85,5.09-13.38,13.3-24.79,24.55-37,37.32-37.23,30.78-.5,67.61l1.5,1.5c10.78,10.64,18.01,18.5,23.65,23.48,3.52,3.08,5.55,7.53,5.56,12.21h0c.02,4.63-1.95,9.04-5.43,12.1-5.85,5.09-13.38,13.3-24.79,24.55-10.23,10.35-17.63,17.27-22.23,22.73l-.96.96c-1.5,1.51-2.66,3.33-3.39,5.33-1.7,3.1-1.73,6.84-.1,9.97.71,2.13,1.9,4.07,3.48,5.67l1.87,1.82c4.56,5.19,11.5,11.75,20.86,21.13l1.49,1.5c11.16,11.06,18.54,19.11,24.3,24.02l1.25,1.25c1.63,1.61,3.61,2.82,5.79,3.52,2.31,1.1,4.94,1.3,7.39.57,2.95-.54,5.66-1.96,7.78-4.09l3.55-3.55c5.45-4.97,12.34-12.25,21.97-21.95,9.99-10.06,17.46-16.89,22.27-22.29l55.09-55.09.12.12,89.07-89.03c2.01-2.01,4.74-3.14,7.58-3.14h.16c3.25.02,6.32,1.5,8.36,4.02,4.48,5.43,11.87,12.36,22.2,22.71l1.5,1.5c10.78,10.64,18.01,18.5,23.65,23.48,3.52,3.08,5.55,7.53,5.56,12.21h0c.02,4.63-1.95,9.04-5.43,12.1-5.85,5.09-13.38,13.3-24.79,24.55-10.22,10.32-17.63,17.27-22.23,22.73l-.96.96c-1.5,1.51-2.65,3.33-3.38,5.33-1.7,3.1-1.73,6.84-.1,9.97.71,2.13,1.9,4.07,3.48,5.67l1.83,1.83c4.56,5.19,11.5,11.75,20.86,21.13l1.49,1.5c11.21,11.06,18.57,19.11,24.31,24.05l1.25,1.25c1.63,1.61,3.61,2.82,5.79,3.52,2.31,1.1,4.94,1.3,7.39.57,2.95-.54,5.66-1.96,7.78-4.09l3.55-3.55c5.45-4.97,12.34-12.25,21.97-21.95,9.99-10.06,17.46-16.89,22.27-22.29l55.09-55.09.12.12,90.81-90.81c.9-.9,2.12-1.41,3.4-1.41h.13c2.65,0,4.8,2.15,4.8,4.8h0v179.03c0,8.19,6.64,14.83,14.83,14.83h70.35c8.19,0,14.83-6.64,14.83-14.83h0V144.9c0-8.19-6.63-14.83-14.82-14.84t0,0M82.37,396.35c.71-.96,1.52-1.84,2.42-2.63.58-.51,1.2-1.06,1.82-1.63l-4.24,4.26Zm278.42,0c.71-.96,1.52-1.84,2.42-2.63.58-.51,1.2-1.06,1.82-1.63l-4.24,4.26Z"/>
    </g>
  </g>
</svg>