<svg id="Grupo_14" data-name="Grupo 14" xmlns="http://www.w3.org/2000/svg" xmlns:xlink="http://www.w3.org/1999/xlink" width="135.933" height="108.903" viewBox="0 0 135.933 108.903">
  <defs>
    <clipPath id="clip-path">
      <rect id="Rectángulo_18" data-name="Rectángulo 18" width="135.933" height="108.903" fill="none"/>
    </clipPath>
  </defs>
  <g id="Grupo_13" data-name="Grupo 13" clip-path="url(#clip-path)">
    <path id="Trazado_12" data-name="Trazado 12" d="M68,101.668c11.3,0,22.6-.183,33.9.08,5.356.125,7.207-2.065,6.924-7.168-.264-4.765.029-9.559-.081-14.337-.093-4.047,1.546-6.02,5.781-5.89q7.749.239,15.51.007c4.089-.116,6.024,1.487,5.9,5.722-.16,5.349-.122,10.708-.006,16.06.084,3.876-1.648,5.615-5.5,5.565-5.361-.071-10.726.083-16.086-.031-3.9-.083-5.615,1.684-5.573,5.506.059,5.353-.022,10.708.021,16.061.03,3.76-1.591,5.594-5.527,5.584q-35.335-.091-70.671-.006c-3.941.007-5.5-1.889-5.435-5.655.078-4.779-.264-9.58.076-14.335.4-5.6-1.922-7.587-7.378-7.206-4.765.332-9.572-.007-14.359.068-3.877.061-5.566-1.721-5.484-5.58.117-5.543.087-11.09.026-16.634-.04-3.661,1.738-5.148,5.306-5.09,5.552.091,11.108.072,16.661,0,3.686-.048,5.177,1.836,5.165,5.312-.017,4.972.225,9.955-.045,14.911-.281,5.161,1.711,7.257,6.986,7.147,11.294-.235,22.6-.072,33.9-.072Z" transform="translate(0 -19.923)" fill="#121415"/>
    <path id="Trazado_13" data-name="Trazado 13" d="M51.244,27.192c-15.473-.107-14.115,1.826-14.169-14.026C37.024-1.716,36.412.11,50.447.057,66.082,0,64.185-1.16,64.286,13.792c0,.19,0,.381,0,.571-.018,14.061,1.189,12.767-13.042,12.829" transform="translate(-9.931 -0.003)" fill="#121415"/>
    <path id="Trazado_14" data-name="Trazado 14" d="M124.992,27.188c-14.861-.066-13.435,1.567-13.428-13.509C111.571-1.68,110.017.056,125.417.062c14.015,0,13.273-1.7,13.255,13.213-.019,15.908,1.05,13.75-13.68,13.913" transform="translate(-29.886 0)" fill="#121415"/>
  </g>
</svg>
